<svg width="196" height="23" viewBox="0 0 196 23" fill="none" xmlns="http://www.w3.org/2000/svg">
<path d="M30.5774 3.62062H33.8359V15.9307C33.8359 17.9307 33.1721 19.4565 31.8446 20.5082C30.5343 21.5599 28.9481 22.0858 27.0861 22.0858C25.6895 22.0858 24.4568 21.8185 23.3879 21.2841C22.3362 20.7496 21.5258 19.9651 20.9569 18.9307L23.8016 17.3014C24.4568 18.5082 25.5861 19.1117 27.1895 19.1117C28.2412 19.1117 29.0688 18.8358 29.6722 18.2841C30.2757 17.7324 30.5774 16.9479 30.5774 15.9307V14.5342C29.5946 15.8445 28.2154 16.4997 26.4395 16.4997C24.612 16.4997 23.0775 15.8617 21.8362 14.5859C20.6121 13.2928 20 11.7239 20 9.87911C20 8.05156 20.6207 6.49125 21.862 5.19817C23.1034 3.90509 24.6292 3.25856 26.4395 3.25856C28.2154 3.25856 29.5946 3.91371 30.5774 5.22403V3.62062ZM24.3447 12.4394C25.0344 13.0946 25.9051 13.4221 26.9568 13.4221C28.0085 13.4221 28.8705 13.0946 29.5429 12.4394C30.2326 11.767 30.5774 10.9136 30.5774 9.87911C30.5774 8.86189 30.2326 8.0257 29.5429 7.37054C28.8705 6.69814 28.0085 6.36194 26.9568 6.36194C25.9051 6.36194 25.0344 6.69814 24.3447 7.37054C23.6723 8.0257 23.3361 8.86189 23.3361 9.87911C23.3361 10.9136 23.6723 11.767 24.3447 12.4394Z" fill="#11142D"/>
<path d="M59.3937 16.9135C57.4454 16.9135 55.8161 16.2583 54.5058 14.948C53.2127 13.6377 52.5662 12.017 52.5662 10.086C52.5662 8.15501 53.2127 6.53435 54.5058 5.22403C55.8161 3.91371 57.4454 3.25856 59.3937 3.25856C60.6522 3.25856 61.7988 3.56027 62.8332 4.16371C63.8677 4.76714 64.6522 5.57747 65.1866 6.5947L62.316 8.27569C62.0574 7.74122 61.6609 7.31882 61.1264 7.00848C60.6091 6.69814 60.023 6.54297 59.3678 6.54297C58.3678 6.54297 57.5402 6.87917 56.8851 7.55157C56.2299 8.20673 55.9023 9.05154 55.9023 10.086C55.9023 11.1032 56.2299 11.948 56.8851 12.6204C57.5402 13.2756 58.3678 13.6032 59.3678 13.6032C60.0402 13.6032 60.635 13.4566 61.1522 13.1635C61.6867 12.8532 62.0833 12.4308 62.3419 11.8963L65.2384 13.5514C64.6694 14.5687 63.8677 15.3876 62.8332 16.0083C61.7988 16.6117 60.6522 16.9135 59.3937 16.9135Z" fill="#11142D"/>
<path d="M76.6282 3.62062H79.9643V16.5514H76.6282V15.0256C75.6282 16.2842 74.223 16.9135 72.4127 16.9135C70.6886 16.9135 69.2059 16.2583 67.9645 14.948C66.7404 13.6204 66.1284 11.9998 66.1284 10.086C66.1284 8.17225 66.7404 6.56021 67.9645 5.24989C69.2059 3.92233 70.6886 3.25856 72.4127 3.25856C74.223 3.25856 75.6282 3.88785 76.6282 5.14645V3.62062ZM70.4731 12.7239C71.1455 13.3963 71.9989 13.7325 73.0334 13.7325C74.0679 13.7325 74.9213 13.3963 75.5937 12.7239C76.2833 12.0342 76.6282 11.1549 76.6282 10.086C76.6282 9.01706 76.2833 8.14639 75.5937 7.47399C74.9213 6.78434 74.0679 6.43952 73.0334 6.43952C71.9989 6.43952 71.1455 6.78434 70.4731 7.47399C69.8007 8.14639 69.4645 9.01706 69.4645 10.086C69.4645 11.1549 69.8007 12.0342 70.4731 12.7239Z" fill="#11142D"/>
<path d="M85.966 7.29296C85.966 7.63778 86.1901 7.92225 86.6384 8.14639C87.1039 8.35328 87.6642 8.54293 88.3194 8.71534C88.9745 8.87051 89.6297 9.0774 90.2849 9.33602C90.94 9.57739 91.4917 9.99118 91.94 10.5774C92.4055 11.1636 92.6383 11.8963 92.6383 12.7756C92.6383 14.1032 92.1383 15.129 91.1383 15.8531C90.1556 16.56 88.9228 16.9135 87.4401 16.9135C84.785 16.9135 82.9747 15.8876 82.0092 13.8359L84.9057 12.2066C85.285 13.3273 86.1298 13.8876 87.4401 13.8876C88.6297 13.8876 89.2245 13.517 89.2245 12.7756C89.2245 12.4308 88.9918 12.1549 88.5263 11.948C88.078 11.7239 87.5263 11.5256 86.8711 11.3532C86.216 11.1808 85.5608 10.9653 84.9057 10.7067C84.2505 10.4481 83.6902 10.0429 83.2247 9.49119C82.7764 8.92223 82.5523 8.21535 82.5523 7.37054C82.5523 6.0947 83.0178 5.09473 83.9488 4.3706C84.897 3.62924 86.0694 3.25856 87.466 3.25856C88.5177 3.25856 89.4745 3.49993 90.3366 3.98268C91.1986 4.44819 91.8797 5.12059 92.3796 5.99988L89.5349 7.55157C89.1211 6.67228 88.4314 6.23263 87.466 6.23263C87.0349 6.23263 86.6729 6.32746 86.3798 6.51711C86.1039 6.70676 85.966 6.96538 85.966 7.29296Z" fill="#11142D"/>
<path d="M102.824 6.82745H99.9012V12.2066C99.9012 12.6549 100.013 12.9825 100.237 13.1894C100.462 13.3963 100.789 13.517 101.22 13.5514C101.651 13.5687 102.186 13.5601 102.824 13.5256V16.5514C100.53 16.81 98.9098 16.5945 97.9616 15.9049C97.0305 15.2152 96.565 13.9825 96.565 12.2066V6.82745H94.3151V3.62062H96.565V1.0086L99.9012 0V3.62062H102.824V6.82745Z" fill="#11142D"/>
<path d="M47.6411 8.55542C47.6411 9.12428 47.529 9.68756 47.3113 10.2131C47.0936 10.7387 46.7746 11.2162 46.3723 11.6184C45.9701 12.0207 45.4925 12.3398 44.967 12.5574C44.4414 12.7751 43.8782 12.8872 43.3093 12.8872C42.7404 12.8872 42.1772 12.7751 41.6516 12.5574C41.1261 12.3398 40.6485 12.0207 40.2463 11.6184C39.844 11.2162 39.525 10.7387 39.3073 10.2131C39.0896 9.68756 38.9775 9.12428 38.9775 8.55542" stroke="#6C5DD3" stroke-width="1.98155"/>
<path d="M36.489 8.55542C36.489 7.64767 36.6654 6.74881 37.0081 5.91016C37.3509 5.07151 37.8532 4.3095 38.4865 3.66763C39.1199 3.02575 39.8717 2.51659 40.6992 2.16921C41.5267 1.82183 42.4135 1.64303 43.3092 1.64303C44.2048 1.64303 45.0917 1.82183 45.9192 2.16921C46.7466 2.51659 47.4985 3.02575 48.1318 3.66763C48.7651 4.3095 49.2675 5.07152 49.6102 5.91016C49.953 6.74881 50.1294 7.64767 50.1294 8.55542" stroke="#6C5DD3" stroke-width="2.99537"/>
<path d="M46.2125 8.55555C46.2125 8.9368 46.1374 9.31432 45.9915 9.66655C45.8456 10.0188 45.6318 10.3388 45.3622 10.6084C45.0926 10.878 44.7726 11.0919 44.4203 11.2378C44.0681 11.3837 43.6906 11.4587 43.3093 11.4587C42.9281 11.4587 42.5506 11.3837 42.1983 11.2378C41.8461 11.0919 41.526 10.878 41.2565 10.6084C40.9869 10.3388 40.773 10.0188 40.6271 9.66655C40.4812 9.31432 40.4061 8.9368 40.4061 8.55555L43.3093 8.55555H46.2125Z" fill="#6C5DD3"/>
<rect x="38.0225" y="14.7273" width="10.6308" height="1.83995" fill="#6C5DD3"/>
</svg>
