<svg width="34" height="32" viewBox="0 0 34 32" fill="none" xmlns="http://www.w3.org/2000/svg">
<path d="M1 25.8296C1.88733 27.4352 3.12903 29.571 4.26376 30.9858M4.26376 30.9858C4.39445 31.1489 5.27525 29.8514 5.3108 29.7882C6.09181 28.4017 6.66716 26.9558 7.22188 25.4695M4.26376 30.9858C1.47692 21.4167 5.26111 12.0765 11.7546 9.17328C12.3982 8.88553 13.0989 8.57301 13.8245 8.32413M13.8245 8.32413C14.9801 7.92779 16.1986 7.69282 17.3492 7.97626C18.4112 8.23789 19.6842 9.02544 19.9917 10.1262C20.5659 12.1825 18.2508 13.8171 16.3343 13.0618C14.6501 12.3981 13.3744 10.0555 13.8245 8.32413ZM13.8245 8.32413C13.834 8.28761 13.8443 8.25137 13.8553 8.21541C16.5207 -0.462795 27.2069 -0.60669 33 4.0524" stroke="url(#paint0_linear_598_42534)" stroke-miterlimit="1.5" stroke-linecap="round" stroke-linejoin="round"/>
<defs>
<linearGradient id="paint0_linear_598_42534" x1="1" y1="3.57143" x2="10.2369" y2="3.96481" gradientUnits="userSpaceOnUse">
<stop stop-color="#415EF4"/>
<stop offset="1" stop-color="#7141EF"/>
</linearGradient>
</defs>
</svg>
