<svg width="16" height="17" viewBox="0 0 16 17" fill="none" xmlns="http://www.w3.org/2000/svg">
<path fill-rule="evenodd" clip-rule="evenodd" d="M4.81467 4.49996C4.23867 4.49996 3.69867 4.72263 3.29467 5.12729C2.456 5.96729 2.456 7.33463 3.29533 8.17596L8.00133 12.89L12.708 8.17596C13.5473 7.33463 13.5473 5.96729 12.708 5.12729C11.9 4.31729 10.476 4.31863 9.668 5.12729L8.47333 6.32396C8.22267 6.57529 7.78 6.57529 7.52933 6.32396L6.33467 5.12663C5.93067 4.72263 5.39133 4.49996 4.81467 4.49996ZM8.00133 14.5C7.82467 14.5 7.65467 14.43 7.53 14.304L2.35133 9.11729C0.993999 7.75729 0.993999 5.54463 2.35133 4.18463C3.00733 3.52863 3.882 3.16663 4.81467 3.16663C5.74733 3.16663 6.62267 3.52863 7.278 4.18463L8.00133 4.90929L8.72467 4.18529C9.38067 3.52863 10.2553 3.16663 11.1887 3.16663C12.1207 3.16663 12.996 3.52863 13.6513 4.18463C15.0093 5.54463 15.0093 7.75729 13.652 9.11729L8.47333 14.3046C8.348 14.43 8.17867 14.5 8.00133 14.5Z" fill="#757D8A"/>
</svg>
