<svg width="18" height="18" viewBox="0 0 18 18" fill="none" xmlns="http://www.w3.org/2000/svg">
<path d="M2.9325 12.885C2.79 12.885 2.6475 12.8325 2.535 12.72C1.5075 11.685 0.9375 10.32 0.9375 8.87251C0.9375 5.86501 3.375 3.42001 6.375 3.42001L10.9275 3.43501L10.11 2.65501C9.885 2.43751 9.8775 2.08501 10.095 1.86001C10.3125 1.63501 10.665 1.62751 10.89 1.84501L12.72 3.60001C12.885 3.75751 12.9375 4.00501 12.855 4.21501C12.7725 4.42501 12.5625 4.56751 12.33 4.56751L6.375 4.55251C3.9975 4.55251 2.0625 6.49501 2.0625 8.88001C2.0625 10.0275 2.5125 11.115 3.33 11.9325C3.5475 12.15 3.5475 12.51 3.33 12.7275C3.2175 12.8325 3.075 12.885 2.9325 12.885Z" fill="#A6A7B2"/>
<path d="M7.5 16.3125C7.3575 16.3125 7.2225 16.26 7.11 16.155L5.28 14.4C5.115 14.2425 5.0625 13.995 5.145 13.785C5.235 13.575 5.445 13.4625 5.67 13.4325L11.6325 13.4475C14.01 13.4475 15.945 11.505 15.945 9.12C15.945 7.9725 15.495 6.885 14.6775 6.0675C14.46 5.85 14.46 5.49 14.6775 5.2725C14.895 5.055 15.255 5.055 15.4725 5.2725C16.5 6.3075 17.07 7.6725 17.07 9.12C17.07 12.1275 14.6325 14.5725 11.6325 14.5725L7.08 14.5575L7.8975 15.3375C8.1225 15.555 8.13 15.9075 7.9125 16.1325C7.7925 16.2525 7.65 16.3125 7.5 16.3125Z" fill="#A6A7B2"/>
<path d="M9.1875 11.565C8.88 11.565 8.625 11.31 8.625 11.0025V8.45999L8.4825 8.61749C8.2725 8.84999 7.92 8.86499 7.6875 8.66249C7.455 8.45999 7.44 8.09999 7.6425 7.86749L8.7675 6.61499C8.925 6.44249 9.1725 6.38249 9.39 6.46499C9.6075 6.55499 9.75 6.75749 9.75 6.99749V11.01C9.75 11.3175 9.495 11.565 9.1875 11.565Z" fill="#A6A7B2"/>
</svg>
