<svg width="18" height="18" viewBox="0 0 18 18" fill="none" xmlns="http://www.w3.org/2000/svg">
<path d="M16.3125 13.485C16.3125 13.47 16.305 13.455 16.305 13.44C16.2975 13.38 16.29 13.32 16.2675 13.2675C16.2375 13.2 16.2 13.1475 16.155 13.095C16.155 13.095 16.155 13.0875 16.1475 13.0875C16.095 13.035 16.035 12.9975 15.9675 12.9675C15.9 12.9375 15.825 12.9225 15.75 12.9225L12.2475 12.9375C12.2475 12.9375 12.2475 12.9375 12.24 12.9375C11.79 12.9375 11.355 12.7275 11.085 12.3675L10.17 11.19C9.9825 10.9425 9.63 10.8975 9.3825 11.0925C9.135 11.2875 9.09 11.6325 9.285 11.88L10.2 13.0575C10.6875 13.6875 11.4525 14.0625 12.2475 14.0625H12.255L14.3925 14.055L13.86 14.5875C13.6425 14.805 13.6425 15.165 13.86 15.3825C13.9725 15.495 14.115 15.5475 14.2575 15.5475C14.4 15.5475 14.5425 15.495 14.655 15.3825L16.155 13.8825C16.2075 13.83 16.245 13.77 16.275 13.7025C16.2975 13.6275 16.3125 13.5525 16.3125 13.485Z" fill="#A6A7B2"/>
<path d="M6.315 5.01751C5.8275 4.34251 5.0475 3.94501 4.215 3.94501C4.2075 3.94501 4.2075 3.94501 4.2 3.94501L2.25 3.95251C1.9425 3.95251 1.6875 4.20751 1.6875 4.51501C1.6875 4.82251 1.9425 5.07751 2.25 5.07751L4.2075 5.07001H4.215C4.6875 5.07001 5.13 5.29501 5.4 5.67751L6.21 6.80251C6.3225 6.95251 6.495 7.03501 6.6675 7.03501C6.78 7.03501 6.9 6.99751 6.9975 6.93001C7.2525 6.74251 7.305 6.39001 7.125 6.14251L6.315 5.01751Z" fill="#A6A7B2"/>
<path d="M16.305 4.55998C16.305 4.54498 16.3125 4.52998 16.3125 4.52248C16.3125 4.44748 16.2975 4.37248 16.2675 4.30498C16.2375 4.23748 16.2 4.17748 16.1475 4.12498L14.6475 2.62498C14.43 2.40748 14.07 2.40748 13.8525 2.62498C13.635 2.84248 13.635 3.20248 13.8525 3.41998L14.385 3.95248L12.3375 3.94498C12.33 3.94498 12.33 3.94498 12.3225 3.94498C11.46 3.94498 10.65 4.37248 10.17 5.09998L5.3775 12.285C5.1075 12.69 4.65 12.9375 4.1625 12.9375H4.155L2.25 12.9225C1.9425 12.9225 1.6875 13.17 1.6875 13.485C1.6875 13.7925 1.935 14.0475 2.25 14.0475L4.1625 14.055C4.17 14.055 4.17 14.055 4.1775 14.055C5.0475 14.055 5.85 13.6275 6.33 12.9L11.1225 5.71498C11.3925 5.30998 11.85 5.06248 12.3375 5.06248H12.345L15.75 5.07748C15.825 5.07748 15.8925 5.06248 15.9675 5.03248C16.035 5.00248 16.095 4.96498 16.1475 4.91248C16.1475 4.91248 16.1475 4.90498 16.155 4.90498C16.2 4.85248 16.245 4.79998 16.2675 4.73248C16.29 4.67998 16.2975 4.61998 16.305 4.55998Z" fill="#A6A7B2"/>
</svg>
