<svg width="30" height="30" viewBox="0 0 30 30" fill="none" xmlns="http://www.w3.org/2000/svg">
<path fill-rule="evenodd" clip-rule="evenodd" d="M19.9994 18.75C19.9994 19.4375 19.4369 20 18.7494 20C18.0619 20 17.4994 19.4375 17.4994 18.75V11.25C17.4994 10.5625 18.0619 10 18.7494 10C19.4369 10 19.9994 10.5625 19.9994 11.25V18.75ZM12.4994 18.75C12.4994 19.4375 11.9369 20 11.2494 20C10.5619 20 9.99938 19.4375 9.99938 18.75V11.25C9.99938 10.5625 10.5619 10 11.2494 10C11.9369 10 12.4994 10.5625 12.4994 11.25V18.75ZM14.9994 2.5C8.10688 2.5 2.49938 8.1075 2.49938 15C2.49938 21.8925 8.10688 27.5 14.9994 27.5C21.8931 27.5 27.4994 21.8925 27.4994 15C27.4994 8.1075 21.8931 2.5 14.9994 2.5Z" fill="#FF754C"/>
<rect x="10" y="10" width="2.5" height="10" rx="1.25" fill="white"/>
<rect x="17.5" y="10" width="2.5" height="10" rx="1.25" fill="white"/>
</svg>
